<svg id="visual" viewBox="0 0 960 300" width="960" height="300" xmlns="http://www.w3.org/2000/svg" xmlns:xlink="http://www.w3.org/1999/xlink" version="1.1"><path d="M0 13L13.3 13C26.7 13 53.3 13 80 12.5C106.7 12 133.3 11 160 11.5C186.7 12 213.3 14 240 15.5C266.7 17 293.3 18 320 17.5C346.7 17 373.3 15 400 14.5C426.7 14 453.3 15 480 14.5C506.7 14 533.3 12 560 12.5C586.7 13 613.3 16 640 17C666.7 18 693.3 17 720 16C746.7 15 773.3 14 800 13C826.7 12 853.3 11 880 12C906.7 13 933.3 16 946.7 17.5L960 19L960 0L946.7 0C933.3 0 906.7 0 880 0C853.3 0 826.7 0 800 0C773.3 0 746.7 0 720 0C693.3 0 666.7 0 640 0C613.3 0 586.7 0 560 0C533.3 0 506.7 0 480 0C453.3 0 426.7 0 400 0C373.3 0 346.7 0 320 0C293.3 0 266.7 0 240 0C213.3 0 186.7 0 160 0C133.3 0 106.7 0 80 0C53.3 0 26.7 0 13.3 0L0 0Z" fill="#f9f1dc"></path><path d="M0 37L13.3 36C26.7 35 53.3 33 80 31C106.7 29 133.3 27 160 28.5C186.7 30 213.3 35 240 37.5C266.7 40 293.3 40 320 38C346.7 36 373.3 32 400 31C426.7 30 453.3 32 480 32.5C506.7 33 533.3 32 560 33C586.7 34 613.3 37 640 38C666.7 39 693.3 38 720 37C746.7 36 773.3 35 800 35C826.7 35 853.3 36 880 36.5C906.7 37 933.3 37 946.7 37L960 37L960 17L946.7 15.5C933.3 14 906.7 11 880 10C853.3 9 826.7 10 800 11C773.3 12 746.7 13 720 14C693.3 15 666.7 16 640 15C613.3 14 586.7 11 560 10.5C533.3 10 506.7 12 480 12.5C453.3 13 426.7 12 400 12.5C373.3 13 346.7 15 320 15.5C293.3 16 266.7 15 240 13.5C213.3 12 186.7 10 160 9.5C133.3 9 106.7 10 80 10.5C53.3 11 26.7 11 13.3 11L0 11Z" fill="#e1ccae"></path><path d="M0 58L13.3 57C26.7 56 53.3 54 80 54.5C106.7 55 133.3 58 160 60.5C186.7 63 213.3 65 240 66C266.7 67 293.3 67 320 66.5C346.7 66 373.3 65 400 65.5C426.7 66 453.3 68 480 66C506.7 64 533.3 58 560 58C586.7 58 613.3 64 640 67.5C666.7 71 693.3 72 720 71.5C746.7 71 773.3 69 800 67.5C826.7 66 853.3 65 880 64C906.7 63 933.3 62 946.7 61.5L960 61L960 35L946.7 35C933.3 35 906.7 35 880 34.5C853.3 34 826.7 33 800 33C773.3 33 746.7 34 720 35C693.3 36 666.7 37 640 36C613.3 35 586.7 32 560 31C533.3 30 506.7 31 480 30.5C453.3 30 426.7 28 400 29C373.3 30 346.7 34 320 36C293.3 38 266.7 38 240 35.5C213.3 33 186.7 28 160 26.5C133.3 25 106.7 27 80 29C53.3 31 26.7 33 13.3 34L0 35Z" fill="#cca685"></path><path d="M0 133L13.3 134.5C26.7 136 53.3 139 80 137C106.7 135 133.3 128 160 127.5C186.7 127 213.3 133 240 133C266.7 133 293.3 127 320 121.5C346.7 116 373.3 111 400 113C426.7 115 453.3 124 480 122.5C506.7 121 533.3 109 560 108C586.7 107 613.3 117 640 123C666.7 129 693.3 131 720 129.5C746.7 128 773.3 123 800 120.5C826.7 118 853.3 118 880 116.5C906.7 115 933.3 112 946.7 110.5L960 109L960 59L946.7 59.5C933.3 60 906.7 61 880 62C853.3 63 826.7 64 800 65.5C773.3 67 746.7 69 720 69.5C693.3 70 666.7 69 640 65.5C613.3 62 586.7 56 560 56C533.3 56 506.7 62 480 64C453.3 66 426.7 64 400 63.5C373.3 63 346.7 64 320 64.5C293.3 65 266.7 65 240 64C213.3 63 186.7 61 160 58.5C133.3 56 106.7 53 80 52.5C53.3 52 26.7 54 13.3 55L0 56Z" fill="#b88062"></path><path d="M0 148L13.3 148.5C26.7 149 53.3 150 80 148C106.7 146 133.3 141 160 141C186.7 141 213.3 146 240 145C266.7 144 293.3 137 320 131C346.7 125 373.3 120 400 122C426.7 124 453.3 133 480 132C506.7 131 533.3 120 560 119C586.7 118 613.3 127 640 132.5C666.7 138 693.3 140 720 139.5C746.7 139 773.3 136 800 134.5C826.7 133 853.3 133 880 130.5C906.7 128 933.3 123 946.7 120.5L960 118L960 107L946.7 108.5C933.3 110 906.7 113 880 114.5C853.3 116 826.7 116 800 118.5C773.3 121 746.7 126 720 127.5C693.3 129 666.7 127 640 121C613.3 115 586.7 105 560 106C533.3 107 506.7 119 480 120.5C453.3 122 426.7 113 400 111C373.3 109 346.7 114 320 119.5C293.3 125 266.7 131 240 131C213.3 131 186.7 125 160 125.5C133.3 126 106.7 133 80 135C53.3 137 26.7 134 13.3 132.5L0 131Z" fill="#a35a45"></path><path d="M0 160L13.3 160.5C26.7 161 53.3 162 80 161.5C106.7 161 133.3 159 160 160.5C186.7 162 213.3 167 240 166C266.7 165 293.3 158 320 150.5C346.7 143 373.3 135 400 137C426.7 139 453.3 151 480 151.5C506.7 152 533.3 141 560 139.5C586.7 138 613.3 146 640 151C666.7 156 693.3 158 720 158C746.7 158 773.3 156 800 154.5C826.7 153 853.3 152 880 149.5C906.7 147 933.3 143 946.7 141L960 139L960 116L946.7 118.5C933.3 121 906.7 126 880 128.5C853.3 131 826.7 131 800 132.5C773.3 134 746.7 137 720 137.5C693.3 138 666.7 136 640 130.5C613.3 125 586.7 116 560 117C533.3 118 506.7 129 480 130C453.3 131 426.7 122 400 120C373.3 118 346.7 123 320 129C293.3 135 266.7 142 240 143C213.3 144 186.7 139 160 139C133.3 139 106.7 144 80 146C53.3 148 26.7 147 13.3 146.5L0 146Z" fill="#a35a45"></path><path d="M0 175L13.3 175C26.7 175 53.3 175 80 174.5C106.7 174 133.3 173 160 175C186.7 177 213.3 182 240 181C266.7 180 293.3 173 320 166C346.7 159 373.3 152 400 153C426.7 154 453.3 163 480 163C506.7 163 533.3 154 560 153.5C586.7 153 613.3 161 640 166.5C666.7 172 693.3 175 720 174.5C746.7 174 773.3 170 800 167.5C826.7 165 853.3 164 880 162C906.7 160 933.3 157 946.7 155.5L960 154L960 137L946.7 139C933.3 141 906.7 145 880 147.5C853.3 150 826.7 151 800 152.5C773.3 154 746.7 156 720 156C693.3 156 666.7 154 640 149C613.3 144 586.7 136 560 137.5C533.3 139 506.7 150 480 149.5C453.3 149 426.7 137 400 135C373.3 133 346.7 141 320 148.5C293.3 156 266.7 163 240 164C213.3 165 186.7 160 160 158.5C133.3 157 106.7 159 80 159.5C53.3 160 26.7 159 13.3 158.5L0 158Z" fill="#a35a45"></path><path d="M0 190L13.3 189.5C26.7 189 53.3 188 80 187.5C106.7 187 133.3 187 160 190C186.7 193 213.3 199 240 197.5C266.7 196 293.3 187 320 179.5C346.7 172 373.3 166 400 167C426.7 168 453.3 176 480 175.5C506.7 175 533.3 166 560 166C586.7 166 613.3 175 640 180.5C666.7 186 693.3 188 720 187.5C746.7 187 773.3 184 800 182C826.7 180 853.3 179 880 177C906.7 175 933.3 172 946.7 170.5L960 169L960 152L946.7 153.5C933.3 155 906.7 158 880 160C853.3 162 826.7 163 800 165.5C773.3 168 746.7 172 720 172.5C693.3 173 666.7 170 640 164.5C613.3 159 586.7 151 560 151.5C533.3 152 506.7 161 480 161C453.3 161 426.7 152 400 151C373.3 150 346.7 157 320 164C293.3 171 266.7 178 240 179C213.3 180 186.7 175 160 173C133.3 171 106.7 172 80 172.5C53.3 173 26.7 173 13.3 173L0 173Z" fill="#b88062"></path><path d="M0 247L13.3 246C26.7 245 53.3 243 80 243C106.7 243 133.3 245 160 246.5C186.7 248 213.3 249 240 249C266.7 249 293.3 248 320 245.5C346.7 243 373.3 239 400 239.5C426.7 240 453.3 245 480 246.5C506.7 248 533.3 246 560 247.5C586.7 249 613.3 254 640 255.5C666.7 257 693.3 255 720 254C746.7 253 773.3 253 800 253C826.7 253 853.3 253 880 252C906.7 251 933.3 249 946.7 248L960 247L960 167L946.7 168.5C933.3 170 906.7 173 880 175C853.3 177 826.7 178 800 180C773.3 182 746.7 185 720 185.5C693.3 186 666.7 184 640 178.5C613.3 173 586.7 164 560 164C533.3 164 506.7 173 480 173.5C453.3 174 426.7 166 400 165C373.3 164 346.7 170 320 177.5C293.3 185 266.7 194 240 195.5C213.3 197 186.7 191 160 188C133.3 185 106.7 185 80 185.5C53.3 186 26.7 187 13.3 187.5L0 188Z" fill="#cca685"></path><path d="M0 265L13.3 266C26.7 267 53.3 269 80 270C106.7 271 133.3 271 160 271.5C186.7 272 213.3 273 240 273C266.7 273 293.3 272 320 269.5C346.7 267 373.3 263 400 262.5C426.7 262 453.3 265 480 267.5C506.7 270 533.3 272 560 273C586.7 274 613.3 274 640 274C666.7 274 693.3 274 720 274.5C746.7 275 773.3 276 800 276C826.7 276 853.3 275 880 274C906.7 273 933.3 272 946.7 271.5L960 271L960 245L946.7 246C933.3 247 906.7 249 880 250C853.3 251 826.7 251 800 251C773.3 251 746.7 251 720 252C693.3 253 666.7 255 640 253.5C613.3 252 586.7 247 560 245.5C533.3 244 506.7 246 480 244.5C453.3 243 426.7 238 400 237.5C373.3 237 346.7 241 320 243.5C293.3 246 266.7 247 240 247C213.3 247 186.7 246 160 244.5C133.3 243 106.7 241 80 241C53.3 241 26.7 243 13.3 244L0 245Z" fill="#e1ccae"></path><path d="M0 301L13.3 301C26.7 301 53.3 301 80 301C106.7 301 133.3 301 160 301C186.7 301 213.3 301 240 301C266.7 301 293.3 301 320 301C346.7 301 373.3 301 400 301C426.7 301 453.3 301 480 301C506.7 301 533.3 301 560 301C586.7 301 613.3 301 640 301C666.7 301 693.3 301 720 301C746.7 301 773.3 301 800 301C826.7 301 853.3 301 880 301C906.7 301 933.3 301 946.7 301L960 301L960 269L946.7 269.5C933.3 270 906.7 271 880 272C853.3 273 826.7 274 800 274C773.3 274 746.7 273 720 272.5C693.3 272 666.7 272 640 272C613.3 272 586.7 272 560 271C533.3 270 506.7 268 480 265.5C453.3 263 426.7 260 400 260.5C373.3 261 346.7 265 320 267.5C293.3 270 266.7 271 240 271C213.3 271 186.7 270 160 269.5C133.3 269 106.7 269 80 268C53.3 267 26.7 265 13.3 264L0 263Z" fill="#f9f1dc"></path></svg>