<svg id="visual" viewBox="0 0 960 300" width="960" height="300" xmlns="http://www.w3.org/2000/svg" xmlns:xlink="http://www.w3.org/1999/xlink" version="1.1"><path d="M0 43L20 46C40 49 80 55 120 56C160 57 200 53 240 51C280 49 320 49 360 48.5C400 48 440 47 480 46C520 45 560 44 600 46.5C640 49 680 55 720 58C760 61 800 61 840 56C880 51 920 41 940 36L960 31L960 0L940 0C920 0 880 0 840 0C800 0 760 0 720 0C680 0 640 0 600 0C560 0 520 0 480 0C440 0 400 0 360 0C320 0 280 0 240 0C200 0 160 0 120 0C80 0 40 0 20 0L0 0Z" fill="#f9f1dc"></path><path d="M0 94L20 96.5C40 99 80 104 120 104C160 104 200 99 240 102C280 105 320 116 360 117C400 118 440 109 480 105C520 101 560 102 600 108.5C640 115 680 127 720 132C760 137 800 135 840 127C880 119 920 105 940 98L960 91L960 29L940 34C920 39 880 49 840 54C800 59 760 59 720 56C680 53 640 47 600 44.5C560 42 520 43 480 44C440 45 400 46 360 46.5C320 47 280 47 240 49C200 51 160 55 120 54C80 53 40 47 20 44L0 41Z" fill="#cfb79a"></path><path d="M0 220L20 222.5C40 225 80 230 120 220.5C160 211 200 187 240 185C280 183 320 203 360 212.5C400 222 440 221 480 216.5C520 212 560 204 600 208C640 212 680 228 720 230.5C760 233 800 222 840 221C880 220 920 229 940 233.5L960 238L960 89L940 96C920 103 880 117 840 125C800 133 760 135 720 130C680 125 640 113 600 106.5C560 100 520 99 480 103C440 107 400 116 360 115C320 114 280 103 240 100C200 97 160 102 120 102C80 102 40 97 20 94.5L0 92Z" fill="#a97e61"></path><path d="M0 301L20 301C40 301 80 301 120 301C160 301 200 301 240 301C280 301 320 301 360 301C400 301 440 301 480 301C520 301 560 301 600 301C640 301 680 301 720 301C760 301 800 301 840 301C880 301 920 301 940 301L960 301L960 236L940 231.5C920 227 880 218 840 219C800 220 760 231 720 228.5C680 226 640 210 600 206C560 202 520 210 480 214.5C440 219 400 220 360 210.5C320 201 280 181 240 183C200 185 160 209 120 218.5C80 228 40 223 20 220.5L0 218Z" fill="#834634"></path></svg>