<svg id="visual" viewBox="0 0 960 300" width="960" height="300" xmlns="http://www.w3.org/2000/svg" xmlns:xlink="http://www.w3.org/1999/xlink" version="1.1"><rect x="0" y="0" width="960" height="300" fill="#F9F1DC"></rect><path d="M0 105L8.8 112.8C17.7 120.7 35.3 136.3 53.2 143.3C71 150.3 89 148.7 106.8 151.8C124.7 155 142.3 163 160 155.7C177.7 148.3 195.3 125.7 213.2 119C231 112.3 249 121.7 266.8 122.5C284.7 123.3 302.3 115.7 320 106.8C337.7 98 355.3 88 373.2 89.2C391 90.3 409 102.7 426.8 114C444.7 125.3 462.3 135.7 480 130.7C497.7 125.7 515.3 105.3 533.2 102.3C551 99.3 569 113.7 586.8 119.2C604.7 124.7 622.3 121.3 640 129.2C657.7 137 675.3 156 693.2 154.5C711 153 729 131 746.8 113.2C764.7 95.3 782.3 81.7 800 83.8C817.7 86 835.3 104 853.2 119.8C871 135.7 889 149.3 906.8 140.2C924.7 131 942.3 99 951.2 83L960 67L960 0L951.2 0C942.3 0 924.7 0 906.8 0C889 0 871 0 853.2 0C835.3 0 817.7 0 800 0C782.3 0 764.7 0 746.8 0C729 0 711 0 693.2 0C675.3 0 657.7 0 640 0C622.3 0 604.7 0 586.8 0C569 0 551 0 533.2 0C515.3 0 497.7 0 480 0C462.3 0 444.7 0 426.8 0C409 0 391 0 373.2 0C355.3 0 337.7 0 320 0C302.3 0 284.7 0 266.8 0C249 0 231 0 213.2 0C195.3 0 177.7 0 160 0C142.3 0 124.7 0 106.8 0C89 0 71 0 53.2 0C35.3 0 17.7 0 8.8 0L0 0Z" fill="#834634" stroke-linecap="round" stroke-linejoin="miter"></path></svg>